<svg xmlns="http://www.w3.org/2000/svg" viewBox="0 0 1280 320" role="img" aria-label="WezDeck — a flight deck for your AI agents">
  <title>WezDeck</title>
  <defs>
    <linearGradient id="bg" x1="0" y1="0" x2="1" y2="1">
      <stop offset="0" stop-color="#0b0f16"/>
      <stop offset="1" stop-color="#141b27"/>
    </linearGradient>
    <linearGradient id="deck" x1="0" y1="0" x2="1" y2="1">
      <stop offset="0" stop-color="#2e3a4d"/>
      <stop offset="1" stop-color="#080c14"/>
    </linearGradient>
    <linearGradient id="edge" x1="0" y1="0" x2="1" y2="1">
      <stop offset="0" stop-color="#4a5870"/>
      <stop offset="1" stop-color="#14192a"/>
    </linearGradient>
    <filter id="soft" x="-30%" y="-30%" width="160%" height="160%">
      <feGaussianBlur stdDeviation="8"/>
    </filter>
  </defs>

  <rect width="1280" height="320" fill="url(#bg)"/>

  <g transform="translate(32 32) scale(0.5)">
    <rect x="40" y="40" width="432" height="432" rx="76" fill="url(#edge)"/>
    <rect x="56" y="56" width="400" height="400" rx="64" fill="url(#deck)"/>

    <g fill="none" stroke="#2f3a4c" stroke-width="3">
      <rect x="104" y="104" width="96" height="96" rx="18"/>
      <rect x="208" y="104" width="96" height="96" rx="18"/>
      <rect x="312" y="104" width="96" height="96" rx="18"/>
      <rect x="104" y="208" width="96" height="96" rx="18"/>
      <rect x="208" y="208" width="96" height="96" rx="18"/>
      <rect x="312" y="208" width="96" height="96" rx="18"/>
      <rect x="104" y="312" width="96" height="96" rx="18"/>
      <rect x="208" y="312" width="96" height="96" rx="18"/>
      <rect x="312" y="312" width="96" height="96" rx="18"/>
    </g>

    <g fill="#43536a" opacity="0.55">
      <circle cx="360" cy="152" r="3.5"/>
      <circle cx="256" cy="152" r="3.5"/>
      <circle cx="152" cy="256" r="3.5"/>
      <circle cx="360" cy="256" r="3.5"/>
      <circle cx="152" cy="360" r="3.5"/>
      <circle cx="256" cy="360" r="3.5"/>
    </g>

    <g>
      <circle cx="152" cy="152" r="40" fill="#22d3ee" opacity="0.18" filter="url(#soft)"/>
      <rect x="116" y="116" width="72" height="72" rx="14" fill="#22d3ee" opacity="0.14" stroke="#22d3ee" stroke-opacity="0.55" stroke-width="2"/>
      <g transform="translate(152 152)" stroke="#22d3ee" stroke-width="5.5" fill="none" stroke-linecap="round" stroke-linejoin="round">
        <path d="M 22 0 a 22 22 0 1 1 -22 -22 c 6.16 0 12.05 2.44 16.47 6.7 L 22 -9.78"/>
        <path d="M 22 -22 v 12.22 h -12.22"/>
      </g>
    </g>

    <g>
      <circle cx="256" cy="256" r="40" fill="#f59e0b" opacity="0.20" filter="url(#soft)"/>
      <rect x="220" y="220" width="72" height="72" rx="14" fill="#f59e0b" opacity="0.14" stroke="#f59e0b" stroke-opacity="0.55" stroke-width="2"/>
      <g transform="translate(256 256)" fill="none" stroke="#f59e0b" stroke-width="5.5" stroke-linejoin="round" stroke-linecap="round">
        <path d="M 0 -21 L 23 17 L -23 17 Z"/>
        <line x1="0" y1="-6" x2="0" y2="3"/>
        <line x1="0" y1="10" x2="0.01" y2="10"/>
      </g>
    </g>

    <g>
      <circle cx="360" cy="360" r="40" fill="#34d399" opacity="0.20" filter="url(#soft)"/>
      <rect x="324" y="324" width="72" height="72" rx="14" fill="#34d399" opacity="0.14" stroke="#34d399" stroke-opacity="0.55" stroke-width="2"/>
      <path d="M 335 362 L 353 380 L 385 345" fill="none" stroke="#34d399" stroke-width="6.5" stroke-linecap="round" stroke-linejoin="round"/>
    </g>
  </g>

  <g transform="translate(340 0)">
    <text x="0" y="150" font-size="100" font-weight="500" fill="#e6edf6" letter-spacing="-3.5"
          font-family="-apple-system, BlinkMacSystemFont, 'Segoe UI', 'Helvetica Neue', Arial, sans-serif">WezDeck</text>
    <text x="3" y="188" font-size="19" fill="#9fb0c8" letter-spacing="0.3"
          font-family="ui-monospace, SFMono-Regular, Menlo, Consolas, 'Liberation Mono', monospace">a flight deck for your AI agents</text>

    <!-- status row: each item = mini glyph (scaled deck) + bold count + muted label -->
    <g transform="translate(3 244)" font-family="ui-monospace, SFMono-Regular, Menlo, Consolas, 'Liberation Mono', monospace">
      <!-- running -->
      <g>
        <g transform="translate(13 -10) scale(0.5)" stroke="#22d3ee" stroke-width="5.5" fill="none" stroke-linecap="round" stroke-linejoin="round">
          <path d="M 22 0 a 22 22 0 1 1 -22 -22 c 6.16 0 12.05 2.44 16.47 6.7 L 22 -9.78"/>
          <path d="M 22 -22 v 12.22 h -12.22"/>
        </g>
        <text x="38" y="0" font-size="22" font-weight="400" fill="#e6edf6">3</text>
        <text x="60" y="-2" font-size="15" fill="#9fb0c8" letter-spacing="0.5">running</text>
      </g>
      <!-- waiting -->
      <g transform="translate(190 0)">
        <g transform="translate(13 -10) scale(0.5)" fill="none" stroke="#f59e0b" stroke-width="5.5" stroke-linejoin="round" stroke-linecap="round">
          <path d="M 0 -21 L 23 17 L -23 17 Z"/>
          <line x1="0" y1="-6" x2="0" y2="3"/>
          <line x1="0" y1="10" x2="0.01" y2="10"/>
        </g>
        <text x="38" y="0" font-size="22" font-weight="400" fill="#e6edf6">1</text>
        <text x="60" y="-2" font-size="15" fill="#9fb0c8" letter-spacing="0.5">waiting</text>
      </g>
      <!-- done -->
      <g transform="translate(380 0)">
        <g transform="translate(13 -10) scale(0.5)" fill="none" stroke="#34d399" stroke-width="6.5" stroke-linecap="round" stroke-linejoin="round">
          <path d="M -25 2 L -7 20 L 25 -15"/>
        </g>
        <text x="38" y="0" font-size="22" font-weight="400" fill="#e6edf6">7</text>
        <text x="60" y="-2" font-size="15" fill="#9fb0c8" letter-spacing="0.5">done</text>
      </g>
    </g>

    <text x="3" y="288" font-size="13" fill="#5f6e85" letter-spacing="1.4"
          font-family="ui-monospace, SFMono-Regular, Menlo, Consolas, 'Liberation Mono', monospace">WEZTERM · TMUX · GIT WORKTREES</text>
  </g>
</svg>
